<svg xmlns="http://www.w3.org/2000/svg" width="247.53000000000003" height="35" viewBox="0 0 247.53000000000003 35"><rect class="svg__rect" x="0" y="0" width="133.73000000000002" height="35" fill="#E46C17"/><rect class="svg__rect" x="131.73000000000002" y="0" width="115.80000000000001" height="35" fill="#D35B09"/><path class="svg__text" d="M13.95 18.19L13.95 18.19L13.95 17.39Q13.95 16.19 14.38 15.27Q14.80 14.35 15.60 13.85Q16.40 13.35 17.45 13.35L17.45 13.35Q18.86 13.35 19.73 14.12Q20.59 14.89 20.73 16.29L20.73 16.29L19.25 16.29Q19.14 15.37 18.71 14.96Q18.28 14.55 17.45 14.55L17.45 14.55Q16.48 14.55 15.97 15.26Q15.45 15.96 15.44 17.33L15.44 17.33L15.44 18.09Q15.44 19.47 15.93 20.20Q16.43 20.92 17.38 20.92L17.38 20.92Q18.25 20.92 18.69 20.53Q19.13 20.14 19.25 19.22L19.25 19.22L20.73 19.22Q20.60 20.59 19.72 21.35Q18.84 22.12 17.38 22.12L17.38 22.12Q16.36 22.12 15.59 21.63Q14.81 21.15 14.39 20.26Q13.97 19.37 13.95 18.19ZM26.52 22L25.04 22L25.04 13.47L28.04 13.47Q29.52 13.47 30.32 14.13Q31.12 14.79 31.12 16.05L31.12 16.05Q31.12 16.90 30.71 17.48Q30.30 18.06 29.56 18.37L29.56 18.37L31.47 21.92L31.47 22L29.89 22L28.17 18.71L26.52 18.71L26.52 22ZM26.52 14.66L26.52 17.52L28.05 17.52Q28.80 17.52 29.22 17.15Q29.64 16.77 29.64 16.11L29.64 16.11Q29.64 15.43 29.25 15.05Q28.86 14.68 28.09 14.66L28.09 14.66L26.52 14.66ZM35.25 18.00L35.25 18.00L35.25 17.52Q35.25 16.28 35.69 15.32Q36.13 14.37 36.94 13.86Q37.74 13.35 38.79 13.35Q39.83 13.35 40.63 13.85Q41.44 14.35 41.88 15.29Q42.32 16.23 42.32 17.48L42.32 17.48L42.32 17.96Q42.32 19.21 41.89 20.16Q41.46 21.10 40.65 21.61Q39.85 22.12 38.80 22.12L38.80 22.12Q37.76 22.12 36.95 21.61Q36.14 21.10 35.69 20.17Q35.25 19.23 35.25 18.00ZM36.73 17.46L36.73 17.96Q36.73 19.36 37.28 20.13Q37.82 20.90 38.80 20.90L38.80 20.90Q39.78 20.90 40.31 20.15Q40.84 19.40 40.84 17.96L40.84 17.96L40.84 17.51Q40.84 16.09 40.31 15.34Q39.77 14.58 38.79 14.58L38.79 14.58Q37.82 14.58 37.28 15.33Q36.74 16.09 36.73 17.46L36.73 17.46ZM46.36 19.42L46.36 19.42L47.84 19.42Q47.84 20.15 48.32 20.55Q48.80 20.95 49.70 20.95L49.70 20.95Q50.47 20.95 50.86 20.63Q51.25 20.32 51.25 19.80L51.25 19.80Q51.25 19.24 50.85 18.94Q50.46 18.63 49.43 18.32Q48.39 18.01 47.79 17.63L47.79 17.63Q46.62 16.90 46.62 15.72L46.62 15.72Q46.62 14.69 47.46 14.02Q48.30 13.35 49.64 13.35L49.64 13.35Q50.53 13.35 51.23 13.68Q51.93 14.01 52.33 14.61Q52.73 15.22 52.73 15.96L52.73 15.96L51.25 15.96Q51.25 15.29 50.83 14.91Q50.41 14.54 49.63 14.54L49.63 14.54Q48.90 14.54 48.50 14.85Q48.10 15.16 48.10 15.71L48.10 15.71Q48.10 16.18 48.54 16.50Q48.97 16.81 49.97 17.10Q50.96 17.40 51.56 17.78Q52.17 18.16 52.45 18.65Q52.73 19.13 52.73 19.79L52.73 19.79Q52.73 20.86 51.91 21.49Q51.10 22.12 49.70 22.12L49.70 22.12Q48.77 22.12 47.99 21.77Q47.22 21.43 46.79 20.83Q46.36 20.22 46.36 19.42ZM56.59 19.42L56.59 19.42L58.07 19.42Q58.07 20.15 58.55 20.55Q59.03 20.95 59.93 20.95L59.93 20.95Q60.70 20.95 61.09 20.63Q61.48 20.32 61.48 19.80L61.48 19.80Q61.48 19.24 61.08 18.94Q60.69 18.63 59.66 18.32Q58.63 18.01 58.02 17.63L58.02 17.63Q56.85 16.90 56.85 15.72L56.85 15.72Q56.85 14.69 57.69 14.02Q58.53 13.35 59.87 13.35L59.87 13.35Q60.76 13.35 61.46 13.68Q62.16 14.01 62.56 14.61Q62.96 15.22 62.96 15.96L62.96 15.96L61.48 15.96Q61.48 15.29 61.06 14.91Q60.64 14.54 59.86 14.54L59.86 14.54Q59.14 14.54 58.73 14.85Q58.33 15.16 58.33 15.71L58.33 15.71Q58.33 16.18 58.77 16.50Q59.20 16.81 60.20 17.10Q61.19 17.40 61.80 17.78Q62.40 18.16 62.68 18.65Q62.96 19.13 62.96 19.79L62.96 19.79Q62.96 20.86 62.14 21.49Q61.33 22.12 59.93 22.12L59.93 22.12Q59.00 22.12 58.22 21.77Q57.45 21.43 57.02 20.83Q56.59 20.22 56.59 19.42ZM72.96 18.19L72.96 18.19L72.96 17.39Q72.96 16.19 73.39 15.27Q73.81 14.35 74.61 13.85Q75.41 13.35 76.46 13.35L76.46 13.35Q77.87 13.35 78.73 14.12Q79.60 14.89 79.74 16.29L79.74 16.29L78.26 16.29Q78.15 15.37 77.72 14.96Q77.29 14.55 76.46 14.55L76.46 14.55Q75.49 14.55 74.98 15.26Q74.46 15.96 74.45 17.33L74.45 17.33L74.45 18.09Q74.45 19.47 74.94 20.20Q75.44 20.92 76.39 20.92L76.39 20.92Q77.26 20.92 77.70 20.53Q78.14 20.14 78.26 19.22L78.26 19.22L79.74 19.22Q79.61 20.59 78.73 21.35Q77.85 22.12 76.39 22.12L76.39 22.12Q75.37 22.12 74.60 21.63Q73.82 21.15 73.40 20.26Q72.97 19.37 72.96 18.19ZM85.53 22L84.05 22L84.05 13.47L85.53 13.47L85.53 17.02L89.35 17.02L89.35 13.47L90.82 13.47L90.82 22L89.35 22L89.35 18.21L85.53 18.21L85.53 22ZM96.34 22L94.80 22L98.02 13.47L99.35 13.47L102.58 22L101.04 22L100.34 20.01L97.03 20.01L96.34 22ZM98.69 15.28L97.45 18.82L99.92 18.82L98.69 15.28ZM108.10 22L106.63 22L106.63 13.47L108.10 13.47L108.10 22ZM114.39 22L112.91 22L112.91 13.47L114.39 13.47L118.21 19.54L118.21 13.47L119.68 13.47L119.68 22L118.20 22L114.39 15.95L114.39 22Z" fill="#FFFFFF"/><path class="svg__text" d="M145.85 18.26L145.85 18.26L145.85 13.60L148.23 13.60L148.23 18.19Q148.23 20.20 149.82 20.20L149.82 20.20Q151.40 20.20 151.40 18.19L151.40 18.19L151.40 13.60L153.75 13.60L153.75 18.26Q153.75 20.13 152.71 21.15Q151.67 22.17 149.80 22.17L149.80 22.17Q147.92 22.17 146.88 21.15Q145.85 20.13 145.85 18.26ZM160.68 22L157.97 22L161.03 17.75L158.10 13.60L160.78 13.60L162.46 16.02L164.11 13.60L166.68 13.60L163.75 17.66L166.88 22L164.14 22L162.40 19.40L160.68 22ZM180.51 22L178.13 22L178.13 13.60L181.98 13.60Q183.12 13.60 183.96 13.98Q184.79 14.35 185.25 15.06Q185.71 15.76 185.71 16.71L185.71 16.71Q185.71 17.62 185.28 18.30Q184.85 18.98 184.06 19.36L184.06 19.36L185.87 22L183.33 22L181.81 19.77L180.51 19.77L180.51 22ZM180.51 15.47L180.51 17.93L181.83 17.93Q182.56 17.93 182.93 17.61Q183.31 17.29 183.31 16.71L183.31 16.71Q183.31 16.12 182.93 15.79Q182.56 15.47 181.83 15.47L181.83 15.47L180.51 15.47ZM190.07 17.80L190.07 17.80Q190.07 16.55 190.67 15.55Q191.28 14.56 192.34 14.00Q193.40 13.43 194.73 13.43L194.73 13.43Q196.06 13.43 197.13 14.00Q198.19 14.56 198.80 15.55Q199.40 16.55 199.40 17.80L199.40 17.80Q199.40 19.05 198.80 20.04Q198.19 21.04 197.13 21.60Q196.07 22.17 194.73 22.17L194.73 22.17Q193.40 22.17 192.34 21.60Q191.28 21.04 190.67 20.04Q190.07 19.05 190.07 17.80ZM192.46 17.80L192.46 17.80Q192.46 18.51 192.77 19.05Q193.07 19.60 193.58 19.90Q194.10 20.20 194.73 20.20L194.73 20.20Q195.37 20.20 195.89 19.90Q196.40 19.60 196.70 19.05Q197.00 18.51 197.00 17.80L197.00 17.80Q197.00 17.09 196.70 16.54Q196.40 16 195.89 15.70Q195.37 15.40 194.73 15.40L194.73 15.40Q194.09 15.40 193.58 15.70Q193.07 16 192.77 16.54Q192.46 17.09 192.46 17.80ZM203.70 17.80L203.70 17.80Q203.70 16.54 204.30 15.54Q204.90 14.55 205.95 13.99Q207.00 13.43 208.32 13.43L208.32 13.43Q209.47 13.43 210.40 13.84Q211.32 14.25 211.94 15.02L211.94 15.02L210.42 16.39Q209.61 15.40 208.44 15.40L208.44 15.40Q207.76 15.40 207.22 15.70Q206.69 16 206.40 16.54Q206.10 17.09 206.10 17.80L206.10 17.80Q206.10 18.51 206.40 19.05Q206.69 19.60 207.22 19.90Q207.76 20.20 208.44 20.20L208.44 20.20Q209.61 20.20 210.42 19.22L210.42 19.22L211.94 20.58Q211.33 21.35 210.40 21.76Q209.47 22.17 208.32 22.17L208.32 22.17Q207.00 22.17 205.95 21.61Q204.90 21.05 204.30 20.05Q203.70 19.06 203.70 17.80ZM218.83 22L216.47 22L216.47 13.60L218.83 13.60L218.83 17.09L222.08 13.60L224.69 13.60L221.26 17.32L224.87 22L222.11 22L219.71 18.95L218.83 19.90L218.83 22ZM228.39 21.24L228.39 21.24L229.17 19.49Q229.74 19.86 230.48 20.09Q231.22 20.32 231.95 20.32L231.95 20.32Q233.31 20.32 233.32 19.64L233.32 19.64Q233.32 19.28 232.93 19.11Q232.54 18.93 231.67 18.74L231.67 18.74Q230.72 18.53 230.08 18.30Q229.45 18.06 229.00 17.55Q228.54 17.03 228.54 16.16L228.54 16.16Q228.54 15.39 228.96 14.77Q229.38 14.15 230.21 13.79Q231.05 13.43 232.26 13.43L232.26 13.43Q233.08 13.43 233.89 13.62Q234.69 13.80 235.31 14.17L235.31 14.17L234.58 15.93Q233.37 15.28 232.24 15.28L232.24 15.28Q231.54 15.28 231.21 15.49Q230.89 15.70 230.89 16.04L230.89 16.04Q230.89 16.37 231.27 16.54Q231.66 16.71 232.51 16.89L232.51 16.89Q233.47 17.10 234.10 17.33Q234.73 17.56 235.19 18.07Q235.65 18.58 235.65 19.46L235.65 19.46Q235.65 20.21 235.24 20.83Q234.82 21.44 233.98 21.80Q233.13 22.17 231.93 22.17L231.93 22.17Q230.91 22.17 229.95 21.92Q228.99 21.67 228.39 21.24Z" fill="#FFFFFF" x="144.73000000000002"/></svg>