<svg xmlns="http://www.w3.org/2000/svg" width="178.76000000000002" height="35" viewBox="0 0 178.76000000000002 35"><rect class="svg__rect" x="0" y="0" width="133.73000000000002" height="35" fill="#E46C17"/><rect class="svg__rect" x="131.73000000000002" y="0" width="47.03" height="35" fill="#D35B09"/><path class="svg__text" d="M13.95 18.19L13.95 18.19L13.95 17.39Q13.95 16.19 14.38 15.27Q14.80 14.35 15.60 13.85Q16.40 13.35 17.45 13.35L17.45 13.35Q18.86 13.35 19.73 14.12Q20.59 14.89 20.73 16.29L20.73 16.29L19.25 16.29Q19.14 15.37 18.71 14.96Q18.28 14.55 17.45 14.55L17.45 14.55Q16.48 14.55 15.97 15.26Q15.45 15.96 15.44 17.33L15.44 17.33L15.44 18.09Q15.44 19.47 15.93 20.20Q16.43 20.92 17.38 20.92L17.38 20.92Q18.25 20.92 18.69 20.53Q19.13 20.14 19.25 19.22L19.25 19.22L20.73 19.22Q20.60 20.59 19.72 21.35Q18.84 22.12 17.38 22.12L17.38 22.12Q16.36 22.12 15.59 21.63Q14.81 21.15 14.39 20.26Q13.97 19.37 13.95 18.19ZM26.52 22L25.04 22L25.04 13.47L28.04 13.47Q29.52 13.47 30.32 14.13Q31.12 14.79 31.12 16.05L31.12 16.05Q31.12 16.90 30.71 17.48Q30.30 18.06 29.56 18.37L29.56 18.37L31.47 21.92L31.47 22L29.89 22L28.17 18.71L26.52 18.71L26.52 22ZM26.52 14.66L26.52 17.52L28.05 17.52Q28.80 17.52 29.22 17.15Q29.64 16.77 29.64 16.11L29.64 16.11Q29.64 15.43 29.25 15.05Q28.86 14.68 28.09 14.66L28.09 14.66L26.52 14.66ZM35.25 18.00L35.25 18.00L35.25 17.52Q35.25 16.28 35.69 15.32Q36.13 14.37 36.94 13.86Q37.74 13.35 38.79 13.35Q39.83 13.35 40.63 13.85Q41.44 14.35 41.88 15.29Q42.32 16.23 42.32 17.48L42.32 17.48L42.32 17.96Q42.32 19.21 41.89 20.16Q41.46 21.10 40.65 21.61Q39.85 22.12 38.80 22.12L38.80 22.12Q37.76 22.12 36.95 21.61Q36.14 21.10 35.69 20.17Q35.25 19.23 35.25 18.00ZM36.73 17.46L36.73 17.96Q36.73 19.36 37.28 20.13Q37.82 20.90 38.80 20.90L38.80 20.90Q39.78 20.90 40.31 20.15Q40.84 19.40 40.84 17.96L40.84 17.96L40.84 17.51Q40.84 16.09 40.31 15.34Q39.77 14.58 38.79 14.58L38.79 14.58Q37.82 14.58 37.28 15.33Q36.74 16.09 36.73 17.46L36.73 17.46ZM46.36 19.42L46.36 19.42L47.84 19.42Q47.84 20.15 48.32 20.55Q48.80 20.95 49.70 20.95L49.70 20.95Q50.47 20.95 50.86 20.63Q51.25 20.32 51.25 19.80L51.25 19.80Q51.25 19.24 50.85 18.94Q50.46 18.63 49.43 18.32Q48.39 18.01 47.79 17.63L47.79 17.63Q46.62 16.90 46.62 15.72L46.62 15.72Q46.62 14.69 47.46 14.02Q48.30 13.35 49.64 13.35L49.64 13.35Q50.53 13.35 51.23 13.68Q51.93 14.01 52.33 14.61Q52.73 15.22 52.73 15.96L52.73 15.96L51.25 15.96Q51.25 15.29 50.83 14.91Q50.41 14.54 49.63 14.54L49.63 14.54Q48.90 14.54 48.50 14.85Q48.10 15.16 48.10 15.71L48.10 15.71Q48.10 16.18 48.54 16.50Q48.97 16.81 49.97 17.10Q50.96 17.40 51.56 17.78Q52.17 18.16 52.45 18.65Q52.73 19.13 52.73 19.79L52.73 19.79Q52.73 20.86 51.91 21.49Q51.10 22.12 49.70 22.12L49.70 22.12Q48.77 22.12 47.99 21.77Q47.22 21.43 46.79 20.83Q46.36 20.22 46.36 19.42ZM56.59 19.42L56.59 19.42L58.07 19.42Q58.07 20.15 58.55 20.55Q59.03 20.95 59.93 20.95L59.93 20.95Q60.70 20.95 61.09 20.63Q61.48 20.32 61.48 19.80L61.48 19.80Q61.48 19.24 61.08 18.94Q60.69 18.63 59.66 18.32Q58.63 18.01 58.02 17.63L58.02 17.63Q56.85 16.90 56.85 15.72L56.85 15.72Q56.85 14.69 57.69 14.02Q58.53 13.35 59.87 13.35L59.87 13.35Q60.76 13.35 61.46 13.68Q62.16 14.01 62.56 14.61Q62.96 15.22 62.96 15.96L62.96 15.96L61.48 15.96Q61.48 15.29 61.06 14.91Q60.64 14.54 59.86 14.54L59.86 14.54Q59.14 14.54 58.73 14.85Q58.33 15.16 58.33 15.71L58.33 15.71Q58.33 16.18 58.77 16.50Q59.20 16.81 60.20 17.10Q61.19 17.40 61.80 17.78Q62.40 18.16 62.68 18.65Q62.96 19.13 62.96 19.79L62.96 19.79Q62.96 20.86 62.14 21.49Q61.33 22.12 59.93 22.12L59.93 22.12Q59.00 22.12 58.22 21.77Q57.45 21.43 57.02 20.83Q56.59 20.22 56.59 19.42ZM72.96 18.19L72.96 18.19L72.96 17.39Q72.96 16.19 73.39 15.27Q73.81 14.35 74.61 13.85Q75.41 13.35 76.46 13.35L76.46 13.35Q77.87 13.35 78.73 14.12Q79.60 14.89 79.74 16.29L79.74 16.29L78.26 16.29Q78.15 15.37 77.72 14.96Q77.29 14.55 76.46 14.55L76.46 14.55Q75.49 14.55 74.98 15.26Q74.46 15.96 74.45 17.33L74.45 17.33L74.45 18.09Q74.45 19.47 74.94 20.20Q75.44 20.92 76.39 20.92L76.39 20.92Q77.26 20.92 77.70 20.53Q78.14 20.14 78.26 19.22L78.26 19.22L79.74 19.22Q79.61 20.59 78.73 21.35Q77.85 22.12 76.39 22.12L76.39 22.12Q75.37 22.12 74.60 21.63Q73.82 21.15 73.40 20.26Q72.97 19.37 72.96 18.19ZM85.53 22L84.05 22L84.05 13.47L85.53 13.47L85.53 17.02L89.35 17.02L89.35 13.47L90.82 13.47L90.82 22L89.35 22L89.35 18.21L85.53 18.21L85.53 22ZM96.34 22L94.80 22L98.02 13.47L99.35 13.47L102.58 22L101.04 22L100.34 20.01L97.03 20.01L96.34 22ZM98.69 15.28L97.45 18.82L99.92 18.82L98.69 15.28ZM108.10 22L106.63 22L106.63 13.47L108.10 13.47L108.10 22ZM114.39 22L112.91 22L112.91 13.47L114.39 13.47L118.21 19.54L118.21 13.47L119.68 13.47L119.68 22L118.20 22L114.39 15.95L114.39 22Z" fill="#FFFFFF"/><path class="svg__text" d="M145.85 18.26L145.85 18.26L145.85 13.60L148.23 13.60L148.23 18.19Q148.23 20.20 149.82 20.20L149.82 20.20Q151.40 20.20 151.40 18.19L151.40 18.19L151.40 13.60L153.75 13.60L153.75 18.26Q153.75 20.13 152.71 21.15Q151.67 22.17 149.80 22.17L149.80 22.17Q147.92 22.17 146.88 21.15Q145.85 20.13 145.85 18.26ZM160.68 22L157.97 22L161.03 17.75L158.10 13.60L160.78 13.60L162.46 16.02L164.11 13.60L166.68 13.60L163.75 17.66L166.88 22L164.14 22L162.40 19.40L160.68 22Z" fill="#FFFFFF" x="144.73000000000002"/></svg>