<svg width="334" height="64" viewBox="0 0 334 64" fill="none" xmlns="http://www.w3.org/2000/svg">
<path d="M9.59792 1.06251V5.33121C9.60006 5.92029 10.0797 6.39593 10.6687 6.39371H16V8.727C15.1029 9.05194 14.3921 9.76364 14.0667 10.6604H7.4625C7.18151 10.6626 6.9127 10.7758 6.71458 10.9749L0.314582 17.377C0.115031 17.5749 0.00242293 17.8438 0 18.1249V23.4645C0 24.887 2.13333 24.887 2.13333 23.4645V18.5749L7.9125 12.7937H14.0625C14.5077 14.0297 15.6898 14.929 17.0708 14.929C18.4519 14.929 19.6277 14.0297 20.0708 12.7937H26.2271L32 18.5749V23.4645C32 24.887 34.1333 24.887 34.1333 23.4645V18.1249C34.1312 17.8439 34.0183 17.5751 33.8188 17.377L27.425 10.9749C27.225 10.7733 26.9526 10.6604 26.6688 10.6604H20.0667C19.742 9.76158 19.0318 9.0488 18.1333 8.72503V6.39371H23.4625C24.0516 6.39585 24.531 5.92029 24.5333 5.33121V1.06251C24.5312 0.473426 24.0516 -0.00224963 23.4625 8.0032e-06H10.6135C10.0127 0.0548364 9.59739 0.514144 9.59792 1.06251ZM11.7313 2.12501H22.4V4.25825H11.7313V2.12501ZM17.0708 10.6604C17.6726 10.6604 18.1333 11.1296 18.1333 11.7313C18.1333 12.333 17.6726 12.7938 17.0708 12.7938C16.4691 12.7938 16 12.333 16 11.7313C16 11.1296 16.4691 10.6604 17.0708 10.6604ZM7.4625 49.0625C3.34441 49.0625 0 52.409 0 56.5271C0 60.6452 3.34441 64 7.4625 64H56.5333C60.6514 64 64 60.6452 64 56.5271C64 52.409 60.6514 49.0625 56.5333 49.0625H7.4625ZM7.4625 51.1958H56.5333C59.5065 51.1958 61.8646 53.5539 61.8646 56.5271C61.8646 59.5002 59.5065 61.8666 56.5333 61.8666H7.4625C4.48936 61.8666 2.13333 59.5002 2.13333 56.5271C2.13333 53.5539 4.48936 51.1958 7.4625 51.1958ZM10.6687 53.3312C8.91408 53.3312 7.4625 54.7724 7.4625 56.5271C7.4625 58.2817 8.91408 59.7313 10.6687 59.7313C12.4234 59.7313 13.8646 58.2817 13.8646 56.5271C13.8646 54.7724 12.4234 53.3312 10.6687 53.3312ZM21.3292 53.3312C19.5745 53.3312 18.1333 54.7724 18.1333 56.5271C18.1333 58.2817 19.5745 59.7313 21.3292 59.7313C23.0838 59.7313 24.5333 58.2817 24.5333 56.5271C24.5333 54.7724 23.0838 53.3312 21.3292 53.3312ZM32 53.3312C30.2453 53.3312 28.8021 54.7724 28.8021 56.5271C28.8021 58.2817 30.2453 59.7313 32 59.7313C33.7547 59.7313 35.2042 58.2817 35.2042 56.5271C35.2042 54.7724 33.7547 53.3312 32 53.3312ZM42.6688 53.3312C40.9141 53.3312 39.4625 54.7724 39.4625 56.5271C39.4625 58.2817 40.9141 59.7313 42.6688 59.7313C44.4234 59.7313 45.8646 58.2817 45.8646 56.5271C45.8646 54.7724 44.4234 53.3312 42.6688 53.3312ZM53.3292 53.3312C51.5745 53.3312 50.1333 54.7724 50.1333 56.5271C50.1333 58.2817 51.5745 59.7313 53.3292 59.7313C55.0838 59.7313 56.5333 58.2817 56.5333 56.5271C56.5333 54.7724 55.0838 53.3312 53.3292 53.3312ZM10.6687 55.4646C11.2705 55.4646 11.7313 55.9253 11.7313 56.5271C11.7313 57.1288 11.2705 57.5979 10.6687 57.5979C10.067 57.5979 9.59792 57.1288 9.59792 56.5271C9.59792 55.9253 10.067 55.4646 10.6687 55.4646ZM21.3292 55.4646C21.9309 55.4646 22.4 55.9253 22.4 56.5271C22.4 57.1288 21.9309 57.5979 21.3292 57.5979C20.7274 57.5979 20.2667 57.1288 20.2667 56.5271C20.2667 55.9253 20.7274 55.4646 21.3292 55.4646ZM32 55.4646C32.6017 55.4646 33.0708 55.9253 33.0708 56.5271C33.0708 57.1288 32.6017 57.5979 32 57.5979C31.3983 57.5979 30.9354 57.1288 30.9354 56.5271C30.9354 55.9253 31.3983 55.4646 32 55.4646ZM42.6688 55.4646C43.2705 55.4646 43.7313 55.9253 43.7313 56.5271C43.7313 57.1288 43.2705 57.5979 42.6688 57.5979C42.067 57.5979 41.5979 57.1288 41.5979 56.5271C41.5979 55.9253 42.067 55.4646 42.6688 55.4646ZM53.3292 55.4646C53.9309 55.4646 54.4 55.9253 54.4 56.5271C54.4 57.1288 53.9309 57.5979 53.3292 57.5979C52.7274 57.5979 52.2667 57.1288 52.2667 56.5271C52.2667 55.9253 52.7274 55.4646 53.3292 55.4646Z" fill="black"/>
<path d="M7.26736 39.0495V39.1312C7.26736 39.7811 7.52554 40.4044 7.9851 40.864C8.44466 41.3235 9.06796 41.5817 9.71788 41.5817C10.3213 41.5804 10.903 41.3564 11.3516 40.9528C11.8001 41.3564 12.3818 41.5804 12.9852 41.5817C13.6352 41.5817 14.2585 41.3235 14.718 40.864C15.1776 40.4044 15.4358 39.7811 15.4358 39.1312H18.5642C18.5642 39.7811 18.8224 40.4044 19.282 40.864C19.7416 41.3235 20.3648 41.5817 21.0148 41.5817C21.6182 41.5804 22.1999 41.3564 22.6484 40.9528C23.097 41.3564 23.6787 41.5804 24.2821 41.5817C24.932 41.5817 25.5553 41.3235 26.0149 40.864C26.4745 40.4044 26.7326 39.7811 26.7326 39.1312V39.0495C27.6552 38.8612 28.4843 38.36 29.0797 37.6306C29.6751 36.9012 30.0002 35.9885 30 35.047V27.2299C30 26.1467 29.5697 25.1078 28.8038 24.3419C28.0378 23.576 26.999 23.1457 25.9158 23.1457H18.1558V19.8211C18.1566 19.6585 18.1089 19.4993 18.0186 19.3639C17.9284 19.2286 17.7998 19.1233 17.6494 19.0615C17.4999 18.9999 17.3354 18.9842 17.1769 19.0161C17.0184 19.0481 16.873 19.1264 16.759 19.2412L12.8464 23.1457H12.0295V19.8211C12.0289 19.6605 11.9809 19.5037 11.8916 19.3703C11.8023 19.2368 11.6757 19.1326 11.5275 19.0708C11.3793 19.0089 11.2162 18.992 11.0585 19.0223C10.9008 19.0526 10.7556 19.1288 10.6409 19.2412L6.46686 23.3907C6.42237 23.4356 6.38639 23.4882 6.36067 23.5459C5.65829 23.8728 5.06339 24.3928 4.6454 25.0451C4.22741 25.6974 4.00356 26.4551 4 27.2299V35.047C3.99981 35.9885 4.32493 36.9012 4.92033 37.6306C5.51573 38.36 6.34485 38.8612 7.26736 39.0495V39.0495ZM16.5221 21.7897V23.1457H15.158L16.5221 21.7897ZM10.3713 23.1457H9.02356L10.3795 21.7897L10.3713 23.1457ZM5.63368 27.2299C5.63368 26.5799 5.89186 25.9566 6.35142 25.4971C6.81098 25.0375 7.43428 24.7793 8.0842 24.7793H20.0509V29.7866H21.6846V24.7793H25.924C26.5739 24.7793 27.1972 25.0375 27.6567 25.4971C28.1163 25.9566 28.3745 26.5799 28.3745 27.2299V35.047C28.3745 35.6969 28.1163 36.3202 27.6567 36.7798C27.1972 37.2393 26.5739 37.4975 25.924 37.4975H25.1071V39.1312C25.1071 39.3478 25.0211 39.5556 24.8679 39.7088C24.7147 39.862 24.5069 39.948 24.2903 39.948C24.0737 39.948 23.8659 39.862 23.7127 39.7088C23.5595 39.5556 23.4735 39.3478 23.4735 39.1312V38.3144H21.8398V39.1312C21.8398 39.3478 21.7537 39.5556 21.6005 39.7088C21.4473 39.862 21.2396 39.948 21.0229 39.948C20.8063 39.948 20.5985 39.862 20.4453 39.7088C20.2922 39.5556 20.2061 39.3478 20.2061 39.1312V37.4975H13.8021V39.1312C13.8021 39.3478 13.716 39.5556 13.5628 39.7088C13.4096 39.862 13.2019 39.948 12.9852 39.948C12.7686 39.948 12.5608 39.862 12.4076 39.7088C12.2545 39.5556 12.1684 39.3478 12.1684 39.1312V38.3144H10.5347V39.1312C10.5347 39.3478 10.4487 39.5556 10.2955 39.7088C10.1423 39.862 9.93452 39.948 9.71788 39.948C9.50124 39.948 9.29347 39.862 9.14029 39.7088C8.9871 39.5556 8.90104 39.3478 8.90104 39.1312V38.3144C8.90104 38.0977 8.81498 37.89 8.66179 37.7368C8.5086 37.5836 8.30084 37.4975 8.0842 37.4975C7.43428 37.4975 6.81098 37.2393 6.35142 36.7798C5.89186 36.3202 5.63368 35.6969 5.63368 35.047V27.2299Z" fill="black"/>
<path d="M7.74109 30.922C7.95773 30.922 8.1655 30.8359 8.31869 30.6827C8.47188 30.5296 8.55793 30.3218 8.55793 30.1052V28.1611C8.55793 27.9444 8.47188 27.7367 8.31869 27.5835C8.1655 27.4303 7.95773 27.3442 7.74109 27.3442C7.52446 27.3442 7.31669 27.4303 7.1635 27.5835C7.01031 27.7367 6.92426 27.9444 6.92426 28.1611V30.1052C6.92426 30.3218 7.01031 30.5296 7.1635 30.6827C7.31669 30.8359 7.52446 30.922 7.74109 30.922Z" fill="black"/>
<path d="M14.1206 30.922C14.3373 30.922 14.545 30.8359 14.6982 30.6827C14.8514 30.5296 14.9375 30.3218 14.9375 30.1052V28.1611C14.9375 27.9444 14.8514 27.7367 14.6982 27.5835C14.545 27.4303 14.3373 27.3442 14.1206 27.3442C13.904 27.3442 13.6962 27.4303 13.543 27.5835C13.3898 27.7367 13.3038 27.9444 13.3038 28.1611V30.1052C13.3038 30.3218 13.3898 30.5296 13.543 30.6827C13.6962 30.8359 13.904 30.922 14.1206 30.922Z" fill="black"/>
<path d="M8.71313 32.67L9.68517 33.2173C10.0546 33.4234 10.4711 33.5303 10.8941 33.5277C11.3147 33.5315 11.7288 33.4245 12.0948 33.2173L13.1077 32.67C13.296 32.5636 13.4343 32.3869 13.4925 32.1787C13.5507 31.9705 13.5239 31.7476 13.4181 31.5591C13.3655 31.4637 13.2943 31.3798 13.2087 31.3124C13.1231 31.245 13.0249 31.1953 12.9199 31.1664C12.8149 31.1375 12.7051 31.1299 12.5971 31.144C12.4891 31.1581 12.3849 31.1937 12.2909 31.2487L11.3188 31.796C11.1947 31.8677 11.0538 31.9054 10.9104 31.9054C10.767 31.9054 10.6262 31.8677 10.502 31.796L9.5218 31.2487C9.33325 31.1429 9.11044 31.1161 8.9022 31.1743C8.69396 31.2325 8.51728 31.3709 8.4109 31.5591C8.3044 31.7467 8.27641 31.9687 8.33303 32.1768C8.38965 32.385 8.52629 32.5622 8.71313 32.67Z" fill="black"/>
<path d="M99.6482 52C110.419 52 115.94 44.8552 117.402 38.9553L110.419 36.8444C109.391 40.4168 106.198 44.6928 99.6482 44.6928C93.4777 44.6928 87.7402 40.2003 87.7402 32.0271C87.7402 23.3126 93.8024 19.1989 99.5399 19.1989C106.198 19.1989 109.175 23.2585 110.095 26.9391L117.131 24.7199C115.616 18.4953 110.149 12 99.5399 12C89.2558 12 80 19.7943 80 32.0271C80 44.2598 88.931 52 99.6482 52Z" fill="black"/>
<path d="M127.462 31.9729C127.462 23.3126 133.524 19.1989 139.424 19.1989C145.378 19.1989 151.44 23.3126 151.44 31.9729C151.44 40.6333 145.378 44.747 139.424 44.747C133.524 44.747 127.462 40.6333 127.462 31.9729ZM119.722 32.0271C119.722 44.3681 129.032 52 139.424 52C149.871 52 159.18 44.3681 159.18 32.0271C159.18 19.6319 149.871 12 139.424 12C129.032 12 119.722 19.6319 119.722 32.0271Z" fill="black"/>
<path d="M197.424 51.1881V12.8119H189.954V38.1976L173.987 12.8119H164.677V51.1881H172.146V23.9621L189.575 51.1881H197.424Z" fill="black"/>
<path d="M219.534 41.3369L209.52 12.8119H201.347L215.529 51.1881H223.215L237.45 12.8119H229.547L219.534 41.3369Z" fill="black"/>
<path d="M265.404 51.1881V44.1516H248.841V35.2747H263.835V28.6171H248.841V19.8484H265.404V12.8119H241.372V51.1881H265.404Z" fill="black"/>
<path d="M281.107 35.0582V51.1881H288.576V35.0582L302.108 12.8119H293.718L285.112 28.0216L276.506 12.8119H267.737L281.107 35.0582Z" fill="black"/>
<path d="M324.959 51.1881H333.295L325.068 35.4912C330.101 34.0298 333.241 29.9702 333.241 24.6116C333.241 17.954 328.478 12.8119 321.008 12.8119H306.015V51.1881H313.539V36.4114H317.436L324.959 51.1881ZM313.539 29.9702V19.3072H319.601C323.39 19.3072 325.609 21.4181 325.609 24.6658C325.609 27.8051 323.39 29.9702 319.601 29.9702H313.539Z" fill="black"/>
</svg>
