<svg xmlns="http://www.w3.org/2000/svg" width="212.99" height="35" viewBox="0 0 212.99 35"><rect class="svg__rect" x="0" y="0" width="95.04" height="35" fill="#E25A70"/><rect class="svg__rect" x="93.04" y="0" width="119.95" height="35" fill="#BF4E4D"/><path class="svg__text" d="M15.70 22L14.22 22L14.22 13.47L17.22 13.47Q18.69 13.47 19.50 14.13Q20.30 14.79 20.30 16.05L20.30 16.05Q20.30 16.90 19.89 17.48Q19.47 18.06 18.73 18.37L18.73 18.37L20.65 21.92L20.65 22L19.06 22L17.35 18.71L15.70 18.71L15.70 22ZM15.70 14.66L15.70 17.52L17.22 17.52Q17.97 17.52 18.39 17.15Q18.82 16.77 18.82 16.11L18.82 16.11Q18.82 15.43 18.43 15.05Q18.04 14.68 17.26 14.66L17.26 14.66L15.70 14.66ZM24.56 19.16L24.56 19.16L24.56 13.47L26.04 13.47L26.04 19.18Q26.04 20.03 26.47 20.48Q26.90 20.93 27.75 20.93L27.75 20.93Q29.46 20.93 29.46 19.13L29.46 19.13L29.46 13.47L30.93 13.47L30.93 19.17Q30.93 20.53 30.06 21.32Q29.19 22.12 27.75 22.12L27.75 22.12Q26.28 22.12 25.42 21.33Q24.56 20.55 24.56 19.16ZM36.99 22L35.50 22L35.50 13.47L36.99 13.47L40.80 19.54L40.80 13.47L42.27 13.47L42.27 22L40.79 22L36.99 15.95L36.99 22ZM46.58 19.42L46.58 19.42L48.06 19.42Q48.06 20.15 48.54 20.55Q49.02 20.95 49.92 20.95L49.92 20.95Q50.69 20.95 51.08 20.63Q51.47 20.32 51.47 19.80L51.47 19.80Q51.47 19.24 51.08 18.94Q50.68 18.63 49.65 18.32Q48.62 18.01 48.01 17.63L48.01 17.63Q46.84 16.90 46.84 15.72L46.84 15.72Q46.84 14.69 47.68 14.02Q48.52 13.35 49.87 13.35L49.87 13.35Q50.76 13.35 51.45 13.68Q52.15 14.01 52.55 14.61Q52.95 15.22 52.95 15.96L52.95 15.96L51.47 15.96Q51.47 15.29 51.05 14.91Q50.63 14.54 49.85 14.54L49.85 14.54Q49.13 14.54 48.73 14.85Q48.32 15.16 48.32 15.71L48.32 15.71Q48.32 16.18 48.76 16.50Q49.19 16.81 50.19 17.10Q51.18 17.40 51.79 17.78Q52.39 18.16 52.67 18.65Q52.95 19.13 52.95 19.79L52.95 19.79Q52.95 20.86 52.14 21.49Q51.32 22.12 49.92 22.12L49.92 22.12Q48.99 22.12 48.22 21.77Q47.44 21.43 47.01 20.83Q46.58 20.22 46.58 19.42ZM62.95 18.00L62.95 18.00L62.95 17.52Q62.95 16.28 63.39 15.32Q63.83 14.37 64.64 13.86Q65.45 13.35 66.49 13.35Q67.53 13.35 68.34 13.85Q69.14 14.35 69.58 15.29Q70.02 16.23 70.03 17.48L70.03 17.48L70.03 17.96Q70.03 19.21 69.59 20.16Q69.16 21.10 68.35 21.61Q67.55 22.12 66.50 22.12L66.50 22.12Q65.46 22.12 64.65 21.61Q63.84 21.10 63.40 20.17Q62.96 19.23 62.95 18.00ZM64.43 17.46L64.43 17.96Q64.43 19.36 64.98 20.13Q65.53 20.90 66.50 20.90L66.50 20.90Q67.48 20.90 68.02 20.15Q68.55 19.40 68.55 17.96L68.55 17.96L68.55 17.51Q68.55 16.09 68.01 15.34Q67.47 14.58 66.49 14.58L66.49 14.58Q65.53 14.58 64.99 15.33Q64.44 16.09 64.43 17.46L64.43 17.46ZM75.97 22L74.49 22L74.49 13.47L75.97 13.47L79.79 19.54L79.79 13.47L81.26 13.47L81.26 22L79.78 22L75.97 15.95L75.97 22Z" fill="#FFFFFF"/><path class="svg__text" d="M113.97 22L107.23 22L107.23 13.60L113.82 13.60L113.82 15.44L109.58 15.44L109.58 16.85L113.32 16.85L113.32 18.63L109.58 18.63L109.58 20.17L113.97 20.17L113.97 22ZM120.57 15.48L117.99 15.48L117.99 13.60L125.51 13.60L125.51 15.48L122.94 15.48L122.94 22L120.57 22L120.57 15.48ZM132.26 22L129.88 22L129.88 13.60L132.26 13.60L132.26 16.76L135.50 16.76L135.50 13.60L137.87 13.60L137.87 22L135.50 22L135.50 18.72L132.26 18.72L132.26 22ZM149.78 22L143.03 22L143.03 13.60L149.63 13.60L149.63 15.44L145.39 15.44L145.39 16.85L149.12 16.85L149.12 18.63L145.39 18.63L145.39 20.17L149.78 20.17L149.78 22ZM156.96 22L154.58 22L154.58 13.60L158.43 13.60Q159.57 13.60 160.41 13.98Q161.25 14.35 161.70 15.06Q162.16 15.76 162.16 16.71L162.16 16.71Q162.16 17.62 161.73 18.30Q161.30 18.98 160.51 19.36L160.51 19.36L162.32 22L159.78 22L158.26 19.77L156.96 19.77L156.96 22ZM156.96 15.47L156.96 17.93L158.28 17.93Q159.01 17.93 159.39 17.61Q159.76 17.29 159.76 16.71L159.76 16.71Q159.76 16.12 159.39 15.79Q159.01 15.47 158.28 15.47L158.28 15.47L156.96 15.47ZM173.69 22L166.95 22L166.95 13.60L173.54 13.60L173.54 15.44L169.30 15.44L169.30 16.85L173.03 16.85L173.03 18.63L169.30 18.63L169.30 20.17L173.69 20.17L173.69 22ZM178.43 18.26L178.43 18.26L178.43 13.60L180.80 13.60L180.80 18.19Q180.80 20.20 182.40 20.20L182.40 20.20Q183.98 20.20 183.98 18.19L183.98 18.19L183.98 13.60L186.32 13.60L186.32 18.26Q186.32 20.13 185.28 21.15Q184.24 22.17 182.37 22.17L182.37 22.17Q180.50 22.17 179.46 21.15Q178.43 20.13 178.43 18.26ZM193.61 22L191.41 22L191.41 13.60L193.37 13.60L196.32 18.45L199.20 13.60L201.15 13.60L201.18 22L199.00 22L198.97 17.55L196.81 21.17L195.76 21.17L193.61 17.67L193.61 22Z" fill="#FFFFFF" x="106.04"/></svg>