<svg xmlns="http://www.w3.org/2000/svg" width="227.66000000000003" height="35" viewBox="0 0 227.66000000000003 35"><rect class="svg__rect" x="0" y="0" width="95.04" height="35" fill="#F58A9C"/><rect class="svg__rect" x="93.04" y="0" width="134.62" height="35" fill="#EA4560"/><path class="svg__text" d="M15.70 22L14.22 22L14.22 13.47L17.22 13.47Q18.69 13.47 19.50 14.13Q20.30 14.79 20.30 16.05L20.30 16.05Q20.30 16.90 19.89 17.48Q19.47 18.06 18.73 18.37L18.73 18.37L20.65 21.92L20.65 22L19.06 22L17.35 18.71L15.70 18.71L15.70 22ZM15.70 14.66L15.70 17.52L17.22 17.52Q17.97 17.52 18.39 17.15Q18.82 16.77 18.82 16.11L18.82 16.11Q18.82 15.43 18.43 15.05Q18.04 14.68 17.26 14.66L17.26 14.66L15.70 14.66ZM24.56 19.16L24.56 19.16L24.56 13.47L26.04 13.47L26.04 19.18Q26.04 20.03 26.47 20.48Q26.90 20.93 27.75 20.93L27.75 20.93Q29.46 20.93 29.46 19.13L29.46 19.13L29.46 13.47L30.93 13.47L30.93 19.17Q30.93 20.53 30.06 21.32Q29.19 22.12 27.75 22.12L27.75 22.12Q26.28 22.12 25.42 21.33Q24.56 20.55 24.56 19.16ZM36.99 22L35.50 22L35.50 13.47L36.99 13.47L40.80 19.54L40.80 13.47L42.27 13.47L42.27 22L40.79 22L36.99 15.95L36.99 22ZM46.58 19.42L46.58 19.42L48.06 19.42Q48.06 20.15 48.54 20.55Q49.02 20.95 49.92 20.95L49.92 20.95Q50.69 20.95 51.08 20.63Q51.47 20.32 51.47 19.80L51.47 19.80Q51.47 19.24 51.08 18.94Q50.68 18.63 49.65 18.32Q48.62 18.01 48.01 17.63L48.01 17.63Q46.84 16.90 46.84 15.72L46.84 15.72Q46.84 14.69 47.68 14.02Q48.52 13.35 49.87 13.35L49.87 13.35Q50.76 13.35 51.45 13.68Q52.15 14.01 52.55 14.61Q52.95 15.22 52.95 15.96L52.95 15.96L51.47 15.96Q51.47 15.29 51.05 14.91Q50.63 14.54 49.85 14.54L49.85 14.54Q49.13 14.54 48.73 14.85Q48.32 15.16 48.32 15.71L48.32 15.71Q48.32 16.18 48.76 16.50Q49.19 16.81 50.19 17.10Q51.18 17.40 51.79 17.78Q52.39 18.16 52.67 18.65Q52.95 19.13 52.95 19.79L52.95 19.79Q52.95 20.86 52.14 21.49Q51.32 22.12 49.92 22.12L49.92 22.12Q48.99 22.12 48.22 21.77Q47.44 21.43 47.01 20.83Q46.58 20.22 46.58 19.42ZM62.95 18.00L62.95 18.00L62.95 17.52Q62.95 16.28 63.39 15.32Q63.83 14.37 64.64 13.86Q65.45 13.35 66.49 13.35Q67.53 13.35 68.34 13.85Q69.14 14.35 69.58 15.29Q70.02 16.23 70.03 17.48L70.03 17.48L70.03 17.96Q70.03 19.21 69.59 20.16Q69.16 21.10 68.35 21.61Q67.55 22.12 66.50 22.12L66.50 22.12Q65.46 22.12 64.65 21.61Q63.84 21.10 63.40 20.17Q62.96 19.23 62.95 18.00ZM64.43 17.46L64.43 17.96Q64.43 19.36 64.98 20.13Q65.53 20.90 66.50 20.90L66.50 20.90Q67.48 20.90 68.02 20.15Q68.55 19.40 68.55 17.96L68.55 17.96L68.55 17.51Q68.55 16.09 68.01 15.34Q67.47 14.58 66.49 14.58L66.49 14.58Q65.53 14.58 64.99 15.33Q64.44 16.09 64.43 17.46L64.43 17.46ZM75.97 22L74.49 22L74.49 13.47L75.97 13.47L79.79 19.54L79.79 13.47L81.26 13.47L81.26 22L79.78 22L75.97 15.95L75.97 22Z" fill="#FFFFFF"/><path class="svg__text" d="M108.65 22L106.22 22L109.93 13.60L112.27 13.60L115.99 22L113.52 22L112.86 20.37L109.31 20.37L108.65 22ZM111.08 15.93L110.00 18.61L112.16 18.61L111.08 15.93ZM122.73 22L119.13 13.60L121.71 13.60L123.99 19.07L126.31 13.60L128.66 13.60L125.06 22L122.73 22ZM134.23 22L131.81 22L135.52 13.60L137.86 13.60L141.58 22L139.11 22L138.45 20.37L134.90 20.37L134.23 22ZM136.67 15.93L135.59 18.61L137.75 18.61L136.67 15.93ZM152.12 22L145.73 22L145.73 13.60L148.11 13.60L148.11 20.11L152.12 20.11L152.12 22ZM157.95 22L155.53 22L159.24 13.60L161.58 13.60L165.29 22L162.83 22L162.17 20.37L158.61 20.37L157.95 22ZM160.39 15.93L159.31 18.61L161.47 18.61L160.39 15.93ZM171.78 22L169.45 22L169.45 13.60L171.41 13.60L175.11 18.07L175.11 13.60L177.44 13.60L177.44 22L175.49 22L171.78 17.52L171.78 22ZM182.18 17.80L182.18 17.80Q182.18 16.54 182.77 15.54Q183.37 14.55 184.42 13.99Q185.47 13.43 186.79 13.43L186.79 13.43Q187.95 13.43 188.87 13.84Q189.79 14.25 190.41 15.02L190.41 15.02L188.90 16.39Q188.08 15.40 186.92 15.40L186.92 15.40Q186.23 15.40 185.70 15.70Q185.16 16 184.87 16.54Q184.57 17.09 184.57 17.80L184.57 17.80Q184.57 18.51 184.87 19.05Q185.16 19.60 185.70 19.90Q186.23 20.20 186.92 20.20L186.92 20.20Q188.08 20.20 188.90 19.22L188.90 19.22L190.41 20.58Q189.80 21.35 188.87 21.76Q187.95 22.17 186.79 22.17L186.79 22.17Q185.47 22.17 184.42 21.61Q183.37 21.05 182.77 20.05Q182.18 19.06 182.18 17.80ZM197.32 22L194.94 22L194.94 13.60L197.32 13.60L197.32 16.76L200.56 16.76L200.56 13.60L202.93 13.60L202.93 22L200.56 22L200.56 18.72L197.32 18.72L197.32 22ZM214.84 22L208.10 22L208.10 13.60L214.69 13.60L214.69 15.44L210.45 15.44L210.45 16.85L214.18 16.85L214.18 18.63L210.45 18.63L210.45 20.17L214.84 20.17L214.84 22Z" fill="#FFFFFF" x="106.04"/></svg>