<svg xmlns="http://www.w3.org/2000/svg" width="201.33000000000004" height="30" viewBox="0 0 221.33000000000004 35"><rect class="svg__rect" x="0" y="0" width="95.04" height="30" fill="#EA4560"/><rect class="svg__rect" x="93.04" y="0" width="128.29000000000002" height="30" fill="#C13B3A"/><path class="svg__text" d="M15.70 22L14.22 22L14.22 13.47L17.22 13.47Q18.69 13.47 19.50 14.13Q20.30 14.79 20.30 16.05L20.30 16.05Q20.30 16.90 19.89 17.48Q19.47 18.06 18.73 18.37L18.73 18.37L20.65 21.92L20.65 22L19.06 22L17.35 18.71L15.70 18.71L15.70 22ZM15.70 14.66L15.70 17.52L17.22 17.52Q17.97 17.52 18.39 17.15Q18.82 16.77 18.82 16.11L18.82 16.11Q18.82 15.43 18.43 15.05Q18.04 14.68 17.26 14.66L17.26 14.66L15.70 14.66ZM24.56 19.16L24.56 19.16L24.56 13.47L26.04 13.47L26.04 19.18Q26.04 20.03 26.47 20.48Q26.90 20.93 27.75 20.93L27.75 20.93Q29.46 20.93 29.46 19.13L29.46 19.13L29.46 13.47L30.93 13.47L30.93 19.17Q30.93 20.53 30.06 21.32Q29.19 22.12 27.75 22.12L27.75 22.12Q26.28 22.12 25.42 21.33Q24.56 20.55 24.56 19.16ZM36.99 22L35.50 22L35.50 13.47L36.99 13.47L40.80 19.54L40.80 13.47L42.27 13.47L42.27 22L40.79 22L36.99 15.95L36.99 22ZM46.58 19.42L46.58 19.42L48.06 19.42Q48.06 20.15 48.54 20.55Q49.02 20.95 49.92 20.95L49.92 20.95Q50.69 20.95 51.08 20.63Q51.47 20.32 51.47 19.80L51.47 19.80Q51.47 19.24 51.08 18.94Q50.68 18.63 49.65 18.32Q48.62 18.01 48.01 17.63L48.01 17.63Q46.84 16.90 46.84 15.72L46.84 15.72Q46.84 14.69 47.68 14.02Q48.52 13.35 49.87 13.35L49.87 13.35Q50.76 13.35 51.45 13.68Q52.15 14.01 52.55 14.61Q52.95 15.22 52.95 15.96L52.95 15.96L51.47 15.96Q51.47 15.29 51.05 14.91Q50.63 14.54 49.85 14.54L49.85 14.54Q49.13 14.54 48.73 14.85Q48.32 15.16 48.32 15.71L48.32 15.71Q48.32 16.18 48.76 16.50Q49.19 16.81 50.19 17.10Q51.18 17.40 51.79 17.78Q52.39 18.16 52.67 18.65Q52.95 19.13 52.95 19.79L52.95 19.79Q52.95 20.86 52.14 21.49Q51.32 22.12 49.92 22.12L49.92 22.12Q48.99 22.12 48.22 21.77Q47.44 21.43 47.01 20.83Q46.58 20.22 46.58 19.42ZM62.95 18.00L62.95 18.00L62.95 17.52Q62.95 16.28 63.39 15.32Q63.83 14.37 64.64 13.86Q65.45 13.35 66.49 13.35Q67.53 13.35 68.34 13.85Q69.14 14.35 69.58 15.29Q70.02 16.23 70.03 17.48L70.03 17.48L70.03 17.96Q70.03 19.21 69.59 20.16Q69.16 21.10 68.35 21.61Q67.55 22.12 66.50 22.12L66.50 22.12Q65.46 22.12 64.65 21.61Q63.84 21.10 63.40 20.17Q62.96 19.23 62.95 18.00ZM64.43 17.46L64.43 17.96Q64.43 19.36 64.98 20.13Q65.53 20.90 66.50 20.90L66.50 20.90Q67.48 20.90 68.02 20.15Q68.55 19.40 68.55 17.96L68.55 17.96L68.55 17.51Q68.55 16.09 68.01 15.34Q67.47 14.58 66.49 14.58L66.49 14.58Q65.53 14.58 64.99 15.33Q64.44 16.09 64.43 17.46L64.43 17.46ZM75.97 22L74.49 22L74.49 13.47L75.97 13.47L79.79 19.54L79.79 13.47L81.26 13.47L81.26 22L79.78 22L75.97 15.95L75.97 22Z" fill="#FFFFFF"/><path class="svg__text" d="M109.43 22L107.23 22L107.23 13.60L109.18 13.60L112.14 18.45L115.02 13.60L116.97 13.60L117.00 22L114.82 22L114.79 17.55L112.63 21.17L111.58 21.17L109.43 17.67L109.43 22ZM121.73 17.80L121.73 17.80Q121.73 16.55 122.33 15.55Q122.94 14.56 124.00 14.00Q125.06 13.43 126.39 13.43L126.39 13.43Q127.72 13.43 128.79 14.00Q129.85 14.56 130.46 15.55Q131.06 16.55 131.06 17.80L131.06 17.80Q131.06 19.05 130.46 20.04Q129.85 21.04 128.79 21.60Q127.73 22.17 126.39 22.17L126.39 22.17Q125.06 22.17 124.00 21.60Q122.94 21.04 122.33 20.04Q121.73 19.05 121.73 17.80ZM124.13 17.80L124.13 17.80Q124.13 18.51 124.43 19.05Q124.73 19.60 125.25 19.90Q125.76 20.20 126.39 20.20L126.39 20.20Q127.03 20.20 127.55 19.90Q128.06 19.60 128.36 19.05Q128.66 18.51 128.66 17.80L128.66 17.80Q128.66 17.09 128.36 16.54Q128.06 16 127.55 15.70Q127.03 15.40 126.39 15.40L126.39 15.40Q125.76 15.40 125.24 15.70Q124.73 16 124.43 16.54Q124.13 17.09 124.13 17.80ZM135.36 17.80L135.36 17.80Q135.36 16.55 135.97 15.55Q136.57 14.56 137.64 14.00Q138.70 13.43 140.03 13.43L140.03 13.43Q141.36 13.43 142.42 14.00Q143.49 14.56 144.09 15.55Q144.70 16.55 144.70 17.80L144.70 17.80Q144.70 19.05 144.09 20.04Q143.49 21.04 142.43 21.60Q141.36 22.17 140.03 22.17L140.03 22.17Q138.70 22.17 137.64 21.60Q136.57 21.04 135.97 20.04Q135.36 19.05 135.36 17.80ZM137.76 17.80L137.76 17.80Q137.76 18.51 138.06 19.05Q138.36 19.60 138.88 19.90Q139.40 20.20 140.03 20.20L140.03 20.20Q140.67 20.20 141.18 19.90Q141.70 19.60 142.00 19.05Q142.30 18.51 142.30 17.80L142.30 17.80Q142.30 17.09 142.00 16.54Q141.70 16 141.18 15.70Q140.67 15.40 140.03 15.40L140.03 15.40Q139.39 15.40 138.88 15.70Q138.36 16 138.06 16.54Q137.76 17.09 137.76 17.80ZM151.76 22L149.43 22L149.43 13.60L151.38 13.60L155.09 18.07L155.09 13.60L157.42 13.60L157.42 22L155.47 22L151.76 17.52L151.76 22ZM167.12 22L162.58 22L162.58 13.60L166.88 13.60Q168.49 13.60 169.33 14.19Q170.17 14.79 170.17 15.79L170.17 15.79Q170.17 16.39 169.87 16.87Q169.58 17.34 169.04 17.62L169.04 17.62Q169.76 17.87 170.17 18.41Q170.57 18.94 170.57 19.70L170.57 19.70Q170.57 20.80 169.69 21.40Q168.80 22 167.12 22L167.12 22ZM164.94 18.58L164.94 20.28L166.93 20.28Q168.18 20.28 168.18 19.43L168.18 19.43Q168.18 18.58 166.93 18.58L166.93 18.58L164.94 18.58ZM164.94 15.31L164.94 16.94L166.57 16.94Q167.77 16.94 167.77 16.12L167.77 16.12Q167.77 15.31 166.57 15.31L166.57 15.31L164.94 15.31ZM182.03 22L175.29 22L175.29 13.60L181.88 13.60L181.88 15.44L177.65 15.44L177.65 16.85L181.38 16.85L181.38 18.63L177.65 18.63L177.65 20.17L182.03 20.17L182.03 22ZM188.26 22L185.83 22L189.54 13.60L191.88 13.60L195.60 22L193.13 22L192.47 20.37L188.92 20.37L188.26 22ZM190.69 15.93L189.61 18.61L191.77 18.61L190.69 15.93ZM201.95 22L199.75 22L199.75 13.60L201.71 13.60L204.66 18.45L207.55 13.60L209.50 13.60L209.52 22L207.34 22L207.32 17.55L205.16 21.17L204.10 21.17L201.95 17.67L201.95 22Z" fill="#FFFFFF" x="106.04"/></svg>