<svg xmlns="http://www.w3.org/2000/svg" width="193.02000000000004" height="35" viewBox="0 0 193.02000000000004 35"><rect class="svg__rect" x="0" y="0" width="66.73" height="35" fill="#EA4560"/><rect class="svg__rect" x="64.73" y="0" width="128.29000000000002" height="35" fill="#C13B3A"/><path class="svg__text" d="M15.70 22L14.22 22L14.22 13.47L17.22 13.47Q18.69 13.47 19.50 14.13Q20.30 14.79 20.30 16.05L20.30 16.05Q20.30 16.90 19.89 17.48Q19.47 18.06 18.73 18.37L18.73 18.37L20.65 21.92L20.65 22L19.06 22L17.35 18.71L15.70 18.71L15.70 22ZM15.70 14.66L15.70 17.52L17.22 17.52Q17.97 17.52 18.39 17.15Q18.82 16.77 18.82 16.11L18.82 16.11Q18.82 15.43 18.43 15.05Q18.04 14.68 17.26 14.66L17.26 14.66L15.70 14.66ZM24.56 19.16L24.56 19.16L24.56 13.47L26.04 13.47L26.04 19.18Q26.04 20.03 26.47 20.48Q26.90 20.93 27.75 20.93L27.75 20.93Q29.46 20.93 29.46 19.13L29.46 19.13L29.46 13.47L30.93 13.47L30.93 19.17Q30.93 20.53 30.06 21.32Q29.19 22.12 27.75 22.12L27.75 22.12Q26.28 22.12 25.42 21.33Q24.56 20.55 24.56 19.16ZM36.99 22L35.50 22L35.50 13.47L36.99 13.47L40.80 19.54L40.80 13.47L42.27 13.47L42.27 22L40.79 22L36.99 15.95L36.99 22ZM46.58 19.42L46.58 19.42L48.06 19.42Q48.06 20.15 48.54 20.55Q49.02 20.95 49.92 20.95L49.92 20.95Q50.69 20.95 51.08 20.63Q51.47 20.32 51.47 19.80L51.47 19.80Q51.47 19.24 51.08 18.94Q50.68 18.63 49.65 18.32Q48.62 18.01 48.01 17.63L48.01 17.63Q46.84 16.90 46.84 15.72L46.84 15.72Q46.84 14.69 47.68 14.02Q48.52 13.35 49.87 13.35L49.87 13.35Q50.76 13.35 51.45 13.68Q52.15 14.01 52.55 14.61Q52.95 15.22 52.95 15.96L52.95 15.96L51.47 15.96Q51.47 15.29 51.05 14.91Q50.63 14.54 49.85 14.54L49.85 14.54Q49.13 14.54 48.73 14.85Q48.32 15.16 48.32 15.71L48.32 15.71Q48.32 16.18 48.76 16.50Q49.19 16.81 50.19 17.10Q51.18 17.40 51.79 17.78Q52.39 18.16 52.67 18.65Q52.95 19.13 52.95 19.79L52.95 19.79Q52.95 20.86 52.14 21.49Q51.32 22.12 49.92 22.12L49.92 22.12Q48.99 22.12 48.22 21.77Q47.44 21.43 47.01 20.83Q46.58 20.22 46.58 19.42Z" fill="#FFFFFF"/><path class="svg__text" d="M81.12 22L78.92 22L78.92 13.60L80.87 13.60L83.83 18.45L86.71 13.60L88.66 13.60L88.69 22L86.51 22L86.48 17.55L84.32 21.17L83.27 21.17L81.12 17.67L81.12 22ZM93.42 17.80L93.42 17.80Q93.42 16.55 94.02 15.55Q94.63 14.56 95.69 14.00Q96.75 13.43 98.08 13.43L98.08 13.43Q99.41 13.43 100.48 14.00Q101.54 14.56 102.15 15.55Q102.75 16.55 102.75 17.80L102.75 17.80Q102.75 19.05 102.15 20.04Q101.54 21.04 100.48 21.60Q99.42 22.17 98.08 22.17L98.08 22.17Q96.75 22.17 95.69 21.60Q94.63 21.04 94.02 20.04Q93.42 19.05 93.42 17.80ZM95.82 17.80L95.82 17.80Q95.82 18.51 96.12 19.05Q96.42 19.60 96.94 19.90Q97.45 20.20 98.08 20.20L98.08 20.20Q98.72 20.20 99.24 19.90Q99.75 19.60 100.05 19.05Q100.35 18.51 100.35 17.80L100.35 17.80Q100.35 17.09 100.05 16.54Q99.75 16 99.24 15.70Q98.72 15.40 98.08 15.40L98.08 15.40Q97.45 15.40 96.93 15.70Q96.42 16 96.12 16.54Q95.82 17.09 95.82 17.80ZM107.05 17.80L107.05 17.80Q107.05 16.55 107.66 15.55Q108.26 14.56 109.33 14.00Q110.39 13.43 111.72 13.43L111.72 13.43Q113.05 13.43 114.11 14.00Q115.18 14.56 115.78 15.55Q116.39 16.55 116.39 17.80L116.39 17.80Q116.39 19.05 115.78 20.04Q115.18 21.04 114.12 21.60Q113.05 22.17 111.72 22.17L111.72 22.17Q110.39 22.17 109.33 21.60Q108.26 21.04 107.66 20.04Q107.05 19.05 107.05 17.80ZM109.45 17.80L109.45 17.80Q109.45 18.51 109.75 19.05Q110.05 19.60 110.57 19.90Q111.09 20.20 111.72 20.20L111.72 20.20Q112.36 20.20 112.87 19.90Q113.39 19.60 113.69 19.05Q113.99 18.51 113.99 17.80L113.99 17.80Q113.99 17.09 113.69 16.54Q113.39 16 112.87 15.70Q112.36 15.40 111.72 15.40L111.72 15.40Q111.08 15.40 110.57 15.70Q110.05 16 109.75 16.54Q109.45 17.09 109.45 17.80ZM123.45 22L121.12 22L121.12 13.60L123.07 13.60L126.78 18.07L126.78 13.60L129.11 13.60L129.11 22L127.16 22L123.45 17.52L123.45 22ZM138.81 22L134.27 22L134.27 13.60L138.57 13.60Q140.18 13.60 141.02 14.19Q141.86 14.79 141.86 15.79L141.86 15.79Q141.86 16.39 141.56 16.87Q141.27 17.34 140.73 17.62L140.73 17.62Q141.45 17.87 141.86 18.41Q142.26 18.94 142.26 19.70L142.26 19.70Q142.26 20.80 141.38 21.40Q140.49 22 138.81 22L138.81 22ZM136.63 18.58L136.63 20.28L138.62 20.28Q139.87 20.28 139.87 19.43L139.87 19.43Q139.87 18.58 138.62 18.58L138.62 18.58L136.63 18.58ZM136.63 15.31L136.63 16.94L138.26 16.94Q139.46 16.94 139.46 16.12L139.46 16.12Q139.46 15.31 138.26 15.31L138.26 15.31L136.63 15.31ZM153.72 22L146.98 22L146.98 13.60L153.57 13.60L153.57 15.44L149.34 15.44L149.34 16.85L153.07 16.85L153.07 18.63L149.34 18.63L149.34 20.17L153.72 20.17L153.72 22ZM159.95 22L157.52 22L161.23 13.60L163.57 13.60L167.29 22L164.82 22L164.16 20.37L160.61 20.37L159.95 22ZM162.38 15.93L161.30 18.61L163.46 18.61L162.38 15.93ZM173.64 22L171.44 22L171.44 13.60L173.40 13.60L176.35 18.45L179.24 13.60L181.19 13.60L181.21 22L179.03 22L179.01 17.55L176.85 21.17L175.79 21.17L173.64 17.67L173.64 22Z" fill="#FFFFFF" x="77.73"/></svg>